<mxfile host="app.diagrams.net" agent="Mozilla/5.0 (Windows NT 10.0; Win64; x64; rv:141.0) Gecko/20100101 Firefox/141.0" version="28.0.7">
  <diagram name="PÃ¡gina-1" id="TMDoCD8hCcpHIJEySzZF">
    <mxGraphModel dx="872" dy="487" grid="1" gridSize="10" guides="1" tooltips="1" connect="1" arrows="1" fold="1" page="1" pageScale="1" pageWidth="827" pageHeight="1169" math="0" shadow="0">
      <root>
        <mxCell id="0" />
        <mxCell id="1" parent="0" />
        <mxCell id="UQOomTZAaCyZAPaUyG3R-3" style="edgeStyle=orthogonalEdgeStyle;rounded=0;orthogonalLoop=1;jettySize=auto;html=1;" edge="1" parent="1" source="UQOomTZAaCyZAPaUyG3R-1" target="UQOomTZAaCyZAPaUyG3R-2">
          <mxGeometry relative="1" as="geometry" />
        </mxCell>
        <mxCell id="UQOomTZAaCyZAPaUyG3R-1" value="Select display padlocks" style="html=1;dashed=0;whiteSpace=wrap;shape=mxgraph.dfd.start" vertex="1" parent="1">
          <mxGeometry x="368" y="40" width="92" height="40" as="geometry" />
        </mxCell>
        <mxCell id="UQOomTZAaCyZAPaUyG3R-8" style="edgeStyle=orthogonalEdgeStyle;rounded=0;orthogonalLoop=1;jettySize=auto;html=1;" edge="1" parent="1" source="UQOomTZAaCyZAPaUyG3R-2" target="UQOomTZAaCyZAPaUyG3R-7">
          <mxGeometry relative="1" as="geometry" />
        </mxCell>
        <mxCell id="UQOomTZAaCyZAPaUyG3R-2" value="&lt;div&gt;Get animal list from padlock backend&lt;/div&gt;" style="html=1;dashed=0;whiteSpace=wrap;" vertex="1" parent="1">
          <mxGeometry x="364" y="140" width="100" height="50" as="geometry" />
        </mxCell>
        <mxCell id="UQOomTZAaCyZAPaUyG3R-10" style="edgeStyle=orthogonalEdgeStyle;rounded=0;orthogonalLoop=1;jettySize=auto;html=1;" edge="1" parent="1" source="UQOomTZAaCyZAPaUyG3R-7" target="UQOomTZAaCyZAPaUyG3R-9">
          <mxGeometry relative="1" as="geometry" />
        </mxCell>
        <mxCell id="UQOomTZAaCyZAPaUyG3R-7" value="&lt;div&gt;Render the padlock&amp;nbsp;&lt;/div&gt;&lt;div&gt;(40 x 30 Grid)&lt;/div&gt;" style="html=1;dashed=0;whiteSpace=wrap;" vertex="1" parent="1">
          <mxGeometry x="364" y="250" width="100" height="50" as="geometry" />
        </mxCell>
        <mxCell id="UQOomTZAaCyZAPaUyG3R-17" style="edgeStyle=orthogonalEdgeStyle;rounded=0;orthogonalLoop=1;jettySize=auto;html=1;" edge="1" parent="1" source="UQOomTZAaCyZAPaUyG3R-9" target="UQOomTZAaCyZAPaUyG3R-16">
          <mxGeometry relative="1" as="geometry" />
        </mxCell>
        <mxCell id="UQOomTZAaCyZAPaUyG3R-9" value="Scale the position and size by grid size" style="html=1;dashed=0;whiteSpace=wrap;" vertex="1" parent="1">
          <mxGeometry x="364" y="360" width="100" height="50" as="geometry" />
        </mxCell>
        <mxCell id="UQOomTZAaCyZAPaUyG3R-14" style="edgeStyle=orthogonalEdgeStyle;rounded=0;orthogonalLoop=1;jettySize=auto;html=1;" edge="1" parent="1" source="UQOomTZAaCyZAPaUyG3R-13" target="UQOomTZAaCyZAPaUyG3R-2">
          <mxGeometry relative="1" as="geometry" />
        </mxCell>
        <mxCell id="UQOomTZAaCyZAPaUyG3R-13" value="&lt;div&gt;Animal&lt;/div&gt;&lt;div&gt;Manager&lt;/div&gt;" style="shape=cylinder;whiteSpace=wrap;html=1;boundedLbl=1;backgroundOutline=1;" vertex="1" parent="1">
          <mxGeometry x="550" y="125" width="60" height="80" as="geometry" />
        </mxCell>
        <mxCell id="UQOomTZAaCyZAPaUyG3R-25" style="edgeStyle=orthogonalEdgeStyle;rounded=0;orthogonalLoop=1;jettySize=auto;html=1;" edge="1" parent="1" source="UQOomTZAaCyZAPaUyG3R-16" target="UQOomTZAaCyZAPaUyG3R-24">
          <mxGeometry relative="1" as="geometry" />
        </mxCell>
        <mxCell id="UQOomTZAaCyZAPaUyG3R-16" value="Render animal token" style="html=1;dashed=0;whiteSpace=wrap;" vertex="1" parent="1">
          <mxGeometry x="364" y="470" width="100" height="50" as="geometry" />
        </mxCell>
        <mxCell id="UQOomTZAaCyZAPaUyG3R-33" style="edgeStyle=orthogonalEdgeStyle;rounded=0;orthogonalLoop=1;jettySize=auto;html=1;fillColor=#d5e8d4;strokeColor=#82b366;" edge="1" parent="1" source="UQOomTZAaCyZAPaUyG3R-18" target="UQOomTZAaCyZAPaUyG3R-2">
          <mxGeometry relative="1" as="geometry">
            <Array as="points">
              <mxPoint x="414" y="860" />
              <mxPoint x="250" y="860" />
              <mxPoint x="250" y="165" />
            </Array>
          </mxGeometry>
        </mxCell>
        <mxCell id="UQOomTZAaCyZAPaUyG3R-34" value="Yes" style="edgeLabel;html=1;align=center;verticalAlign=middle;resizable=0;points=[];" vertex="1" connectable="0" parent="UQOomTZAaCyZAPaUyG3R-33">
          <mxGeometry x="0.0723" y="1" relative="1" as="geometry">
            <mxPoint y="-19" as="offset" />
          </mxGeometry>
        </mxCell>
        <mxCell id="UQOomTZAaCyZAPaUyG3R-35" style="edgeStyle=orthogonalEdgeStyle;rounded=0;orthogonalLoop=1;jettySize=auto;html=1;fillColor=#f8cecc;strokeColor=#b85450;" edge="1" parent="1" source="UQOomTZAaCyZAPaUyG3R-18" target="UQOomTZAaCyZAPaUyG3R-24">
          <mxGeometry relative="1" as="geometry">
            <Array as="points">
              <mxPoint x="330" y="782.5" />
              <mxPoint x="330" y="632.25" />
            </Array>
          </mxGeometry>
        </mxCell>
        <mxCell id="UQOomTZAaCyZAPaUyG3R-36" value="No" style="edgeLabel;html=1;align=center;verticalAlign=middle;resizable=0;points=[];" vertex="1" connectable="0" parent="UQOomTZAaCyZAPaUyG3R-35">
          <mxGeometry x="0.0694" y="-2" relative="1" as="geometry">
            <mxPoint as="offset" />
          </mxGeometry>
        </mxCell>
        <mxCell id="UQOomTZAaCyZAPaUyG3R-18" value="&lt;div&gt;60&amp;nbsp;&lt;/div&gt;&lt;div&gt;seconds have&amp;nbsp;&lt;/div&gt;&lt;div&gt;passed?&lt;/div&gt;" style="shape=rhombus;html=1;dashed=0;whiteSpace=wrap;perimeter=rhombusPerimeter;" vertex="1" parent="1">
          <mxGeometry x="366" y="740" width="96" height="85" as="geometry" />
        </mxCell>
        <mxCell id="UQOomTZAaCyZAPaUyG3R-26" style="edgeStyle=orthogonalEdgeStyle;rounded=0;orthogonalLoop=1;jettySize=auto;html=1;fillColor=#f8cecc;strokeColor=#b85450;" edge="1" parent="1" source="UQOomTZAaCyZAPaUyG3R-24" target="UQOomTZAaCyZAPaUyG3R-18">
          <mxGeometry relative="1" as="geometry" />
        </mxCell>
        <mxCell id="UQOomTZAaCyZAPaUyG3R-27" value="No" style="edgeLabel;html=1;align=center;verticalAlign=middle;resizable=0;points=[];" vertex="1" connectable="0" parent="UQOomTZAaCyZAPaUyG3R-26">
          <mxGeometry x="-0.2333" relative="1" as="geometry">
            <mxPoint as="offset" />
          </mxGeometry>
        </mxCell>
        <mxCell id="UQOomTZAaCyZAPaUyG3R-28" style="edgeStyle=orthogonalEdgeStyle;rounded=0;orthogonalLoop=1;jettySize=auto;html=1;fillColor=#d5e8d4;strokeColor=#82b366;" edge="1" parent="1" source="UQOomTZAaCyZAPaUyG3R-24" target="UQOomTZAaCyZAPaUyG3R-31">
          <mxGeometry relative="1" as="geometry">
            <mxPoint x="580" y="632.3" as="targetPoint" />
          </mxGeometry>
        </mxCell>
        <mxCell id="UQOomTZAaCyZAPaUyG3R-29" value="Yes" style="edgeLabel;html=1;align=center;verticalAlign=middle;resizable=0;points=[];" vertex="1" connectable="0" parent="UQOomTZAaCyZAPaUyG3R-28">
          <mxGeometry x="-0.2281" y="1" relative="1" as="geometry">
            <mxPoint as="offset" />
          </mxGeometry>
        </mxCell>
        <mxCell id="UQOomTZAaCyZAPaUyG3R-24" value="&lt;div&gt;User&amp;nbsp;&lt;/div&gt;&lt;div&gt;clicked on&amp;nbsp;&lt;/div&gt;&lt;div&gt;stop monitoring button?&lt;/div&gt;" style="shape=rhombus;html=1;dashed=0;whiteSpace=wrap;perimeter=rhombusPerimeter;" vertex="1" parent="1">
          <mxGeometry x="356" y="584.5" width="116" height="95.5" as="geometry" />
        </mxCell>
        <mxCell id="UQOomTZAaCyZAPaUyG3R-31" value="Stop Monitoring Animals" style="html=1;dashed=0;whiteSpace=wrap;shape=mxgraph.dfd.start" vertex="1" parent="1">
          <mxGeometry x="600" y="608.63" width="110" height="47.25" as="geometry" />
        </mxCell>
      </root>
    </mxGraphModel>
  </diagram>
</mxfile>
